<?xml version="1.0" encoding="utf-8"?>
<!-- Generator: Adobe Illustrator 16.0.0, SVG Export Plug-In . SVG Version: 6.00 Build 0)  -->
<!DOCTYPE svg PUBLIC "-//W3C//DTD SVG 1.1//EN" "http://www.w3.org/Graphics/SVG/1.1/DTD/svg11.dtd">
<svg version="1.1" id="Layer_1" xmlns="http://www.w3.org/2000/svg" xmlns:xlink="http://www.w3.org/1999/xlink" x="0px" y="0px"
	 width="2314px" height="896px" viewBox="0 0 2314 896" enable-background="new 0 0 2314 896" xml:space="preserve">
<g>
	<path fill="#FEFEFE" d="M1158,897c-384.166,0-768.333-0.006-1152.5,0.093c-3.748,0.001-4.595-0.843-4.594-4.593
		c0.102-295.666,0.102-591.333,0-886.999C0.906,1.753,1.749,0.907,5.5,0.907c768.333,0.096,1536.667,0.096,2305,0
		c3.747,0,4.596,0.84,4.595,4.592c-0.102,295.667-0.102,591.333-0.001,887c0.002,3.746-0.84,4.595-4.592,4.594
		C1926.334,896.993,1542.167,897,1158,897z M303.469,578.74c13.598,0.086,27.195,0.111,40.79,0.318
		c2.383,0.036,3.063-1.402,3.975-2.986c9.173-15.925,18.366-31.837,27.554-47.753c7.726-13.371,15.452-26.742,23.178-40.113
		c4.617-7.88,9.19-15.785,13.863-23.631c5.23-8.781,5.434-17.523,0.212-26.391c-4.386-7.447-8.652-14.965-12.978-22.448
		c-17.222-29.798-34.441-59.598-51.678-89.386c-0.962-1.662-1.64-3.361-4.321-3.311c-13.646,0.259-27.296,0.267-40.943,0.361
		c-15.066,0-30.132,0-45.633,0c0.757,1.408,1.338,2.563,1.983,3.682c16.968,29.355,34.015,58.666,50.879,88.08
		c7.004,12.216,14.609,24.1,20.688,36.837c-0.57,0.81-1.208,1.58-1.702,2.434c-19.067,32.957-38.123,65.921-57.176,98.886
		c-4.862,8.412-9.714,16.831-14.67,25.42C273.188,578.739,288.328,578.739,303.469,578.74z M668.942,436.141
		c-14.496,0-28.993,0.101-43.487-0.074c-3.394-0.04-4.706,0.733-4.542,4.373c0.293,6.485,0.406,13.015-0.025,19.483
		c-0.318,4.771,1.002,6.149,5.935,6.066c18.989-0.321,37.987-0.154,56.982-0.091c1.814,0.006,4.78-1.176,3.911,2.915
		c-2.27,10.688-5.323,21.06-12.861,29.366c-19.244,21.209-43.788,26.858-70.614,21.257c-38.298-7.997-62.956-43.36-58.485-82.263
		c3.352-29.167,18.352-50.753,45.585-61.896c27.765-11.359,54.146-7.364,77.558,12.119c2.057,1.712,3.314,2.005,5.292-0.079
		c4.93-5.196,10.003-10.264,15.196-15.196c2.111-2.005,1.958-3.259-0.146-5.103c-6.033-5.289-12.366-10.144-19.46-13.906
		c-45.79-24.29-102.411-11.931-134.13,29.236c-32.829,42.608-27.808,102.359,11.577,138.518
		c25.702,23.596,55.993,32.591,90.288,27.899c28.861-3.947,51.691-18.203,66.966-43.089c12.493-20.354,15.223-42.986,12.474-66.455
		c-0.367-3.133-2.205-3.111-4.524-3.104C697.935,436.163,683.438,436.141,668.942,436.141z M1078.526,436.142
		c-14.499,0-29,0.084-43.499-0.065c-3.225-0.033-4.376,0.835-4.254,4.193c0.248,6.825,0.341,13.679-0.023,20.492
		c-0.228,4.273,1.229,5.238,5.313,5.192c18.998-0.215,37.999-0.072,56.999-0.119c2.736-0.007,4.918-0.122,4.089,3.871
		c-2.519,12.125-6.76,23.279-16.021,32.048c-19.354,18.321-42.619,23.091-67.678,17.545c-49.54-10.964-74.076-67.241-49.002-111.423
		c14.468-25.493,37.058-38.202,66.108-38.56c17.672-0.217,33.745,5.638,47.195,17.445c3.017,2.649,4.675,2.367,7.205-0.399
		c4.382-4.792,9.016-9.372,13.774-13.793c2.429-2.255,2.356-3.487-0.164-5.74c-26.193-23.408-56.859-30.517-90.643-23.729
		c-59.185,11.891-96.327,71.439-80.737,128.889c13.519,49.817,62.765,83.485,116.521,77.261
		c52.562-6.086,90.157-48.853,83.056-109.049c-0.398-3.383-1.997-4.177-5.239-4.137
		C1107.194,436.242,1092.86,436.141,1078.526,436.142z M741.371,445.025c0,31.645,0.014,63.289-0.023,94.934
		c-0.004,2.824-0.271,5.046,3.944,4.991c21.146-0.276,42.314,0.29,63.439-0.456c26.868-0.949,50.959-9.51,69.829-29.573
		c26.301-27.965,33.677-76.445,16.959-113.21c-17.207-37.842-48.453-54.188-88.52-55.593c-20.128-0.705-40.302-0.01-60.452-0.218
		c-4.088-0.042-5.303,0.969-5.277,5.191C741.456,382.402,741.371,413.714,741.371,445.025z M1764.455,480.653
		c0-16.49,0-32.98,0-49.471c0-12.659,0-12.659-12.518-12.658c-10.97,0.002-10.954,0.003-11.386,11.021
		c-0.048,1.233,0.61,2.942-1.012,3.516c-1.604,0.566-2.167-1.188-3.018-2.076c-18.531-19.33-49.192-22.044-71.145-6.648
		c-29.286,20.539-35.317,61.089-20.954,90.423c11.196,22.865,34.001,38.598,63.483,33.345c11.321-2.017,21.017-7.093,28.835-15.64
		c0.797-0.872,1.257-2.812,2.947-2.059c1.482,0.66,0.814,2.352,0.856,3.596c0.09,2.662,0.192,5.342-0.004,7.992
		c-0.817,11.025-3.558,21.295-11.701,29.449c-15.527,15.545-50.952,15.184-62.072-10.934c-0.958-2.249-2.099-3.036-4.597-1.916
		c-5.605,2.515-11.286,4.886-17.037,7.046c-2.942,1.104-2.72,2.746-1.771,5.055c3.994,9.725,10.631,17.333,19.309,22.978
		c16.318,10.615,34.336,12.991,53.15,9.372c20.174-3.881,34.753-15.148,43.039-34.188c4.694-10.784,5.238-22.308,5.487-33.738
		C1764.744,516.971,1764.454,498.809,1764.455,480.653z M1479.797,499.986c-0.027,0-0.054,0-0.08,0
		c0-12.824,0.283-25.656-0.066-38.471c-0.534-19.617-12.792-36.265-31.168-42.904c-12.817-4.631-26.059-5.407-39.342-3.015
		c-13.642,2.457-25.379,8.607-34.355,19.603c-2.713,3.324-3.164,5.269,1.104,7.499c4.555,2.38,8.895,5.229,13.103,8.193
		c2.969,2.092,4.873,2.206,7.268-0.992c6.133-8.191,14.751-12.128,24.764-13.334c17.849-2.151,34.946,12.011,35.298,29.207
		c0.053,2.58-0.176,3.755-3.3,2.493c-17.957-7.253-36.314-7.251-54.761-2.24c-27.585,7.493-39.474,38.868-23.621,62.598
		c10.075,15.083,25.331,20.487,42.609,20.6c11.433,0.074,21.903-3.46,30.491-11.598c2.613-2.476,5.901-8.021,7.353-7.119
		c3.188,1.979,0.952,6.886,1.181,10.56c0.187,3.003,1.203,4.104,4.212,3.992c4.99-0.184,10.005-0.275,14.984,0.021
		c3.682,0.219,4.432-1.274,4.393-4.619C1479.704,526.971,1479.797,513.478,1479.797,499.986z M1914.401,481.667
		c-0.317-6.292-0.448-12.53-2.019-18.771c-10.771-42.791-56.174-59.451-92.576-41.705c-24.143,11.77-34.766,32.923-35.282,59.283
		c-1.027,52.351,45.365,81.077,91.16,63.695C1895.658,536.588,1915.541,514.458,1914.401,481.667z M1958.826,434.997
		c0-5.099-0.145-8.688,0.045-12.262c0.158-2.981-0.926-4.28-3.963-4.218c-5.328,0.109-10.661,0.126-15.989,0.015
		c-2.799-0.059-3.72,1.022-3.715,3.833c0.07,39.643,0.066,79.286,0.001,118.929c-0.005,2.784,0.838,3.854,3.711,3.759
		c5.324-0.179,10.68-0.336,15.982,0.048c4.188,0.303,4.914-1.343,4.884-5.124c-0.17-20.985-0.063-41.974-0.098-62.961
		c-0.006-3.673,0.307-7.267,0.967-10.9c3.933-21.633,22.849-33.462,43.799-27.25c6.744,2,11.663,6.087,14.71,12.495
		c2.342,4.925,3.216,10.063,3.202,15.481c-0.061,23.985,0.13,47.973-0.146,71.955c-0.06,5.183,1.482,6.792,6.505,6.299
		c4.289-0.422,8.677-0.37,12.977-0.008c4.366,0.367,5.783-1.102,5.754-5.532c-0.175-25.65,0.195-51.307-0.211-76.951
		c-0.2-12.658-3.086-24.835-12.18-34.511c-12.734-13.55-37.029-17.706-55.131-9.745
		C1971.928,421.869,1965.206,427.008,1958.826,434.997z M1529.16,433.492c0-3.609-0.145-7.226,0.045-10.824
		c0.159-3.009-0.949-4.244-3.995-4.163c-5.163,0.138-10.335,0.174-15.496,0.015c-3.108-0.097-3.956,1.142-3.891,4.136
		c0.182,8.329,0.062,16.664,0.062,24.997c0,30.83,0.078,61.661-0.096,92.491c-0.022,4.025,1.156,5.192,5.04,4.938
		c4.813-0.315,9.677-0.31,14.489,0.003c3.742,0.242,4.799-0.949,4.768-4.726c-0.18-21.83-0.098-43.662-0.083-65.494
		c0.006-8.743,2.603-16.753,7.491-23.911c10.627-15.558,32.098-18.857,46.521-7.005c6.782,5.574,8.815,13.572,8.86,21.969
		c0.13,24.83,0.099,49.662-0.008,74.492c-0.015,3.311,0.708,4.859,4.391,4.668c5.318-0.276,10.67-0.247,15.992-0.008
		c3.57,0.16,4.694-1.247,4.577-4.656c-0.188-5.492,0.051-10.999-0.065-16.496c-0.483-22.966,1.41-45.988-0.938-68.896
		c-3.043-29.686-24.976-42.429-51.729-40.264C1550.777,415.916,1539.205,422.595,1529.16,433.492z M1285.648,434.097
		c-1.852-0.996-2.463-2.827-3.394-4.352c-13.277-21.725-26.573-43.438-39.673-65.271c-1.803-3.005-3.819-4.153-7.203-4.024
		c-5.49,0.209-10.995-0.016-16.491,0.091c-2.093,0.041-4.822-1.002-6.116,1.004c-1.437,2.226,1.247,3.825,2.287,5.488
		c18.355,29.334,36.785,58.622,55.305,87.854c2.139,3.376,3.085,6.745,3.062,10.76c-0.143,24.658,0.047,49.317-0.185,73.974
		c-0.042,4.507,1.266,5.826,5.623,5.472c4.635-0.378,9.344-0.353,13.982-0.004c4.04,0.303,4.99-1.115,4.962-5.04
		c-0.181-25.157-0.056-50.315-0.138-75.474c-0.01-3.126,0.689-5.793,2.374-8.438c5.633-8.844,11.101-17.792,16.614-26.71
		c13.127-21.229,26.266-42.452,39.35-63.708c3.012-4.894,2.818-5.172-2.724-5.203c-5.831-0.034-11.677,0.235-17.489-0.088
		c-4.216-0.234-6.627,1.354-8.735,4.971c-11.905,20.409-24.006,40.704-36.141,60.978
		C1289.328,429.033,1288.229,432.105,1285.648,434.097z"/>
	<path fill-rule="evenodd" clip-rule="evenodd" fill="#777777" d="M668.942,436.141c14.496,0,28.992,0.022,43.488-0.022
		c2.319-0.007,4.157-0.028,4.524,3.104c2.749,23.469,0.02,46.102-12.474,66.455c-15.274,24.886-38.104,39.142-66.966,43.089
		c-34.295,4.691-64.586-4.304-90.288-27.899c-39.385-36.158-44.406-95.909-11.577-138.518c31.719-41.167,88.34-53.526,134.13-29.236
		c7.094,3.763,13.427,8.617,19.46,13.906c2.104,1.844,2.257,3.098,0.146,5.103c-5.193,4.933-10.267,10-15.196,15.196
		c-1.978,2.084-3.235,1.791-5.292,0.079c-23.412-19.483-49.793-23.479-77.558-12.119c-27.233,11.143-42.233,32.729-45.585,61.896
		c-4.471,38.902,20.188,74.266,58.485,82.263c26.826,5.602,51.37-0.048,70.614-21.257c7.538-8.307,10.592-18.678,12.861-29.366
		c0.869-4.091-2.097-2.909-3.911-2.915c-18.995-0.063-37.993-0.23-56.982,0.091c-4.933,0.083-6.253-1.295-5.935-6.066
		c0.432-6.469,0.318-12.998,0.025-19.483c-0.164-3.64,1.148-4.413,4.542-4.373C639.949,436.241,654.446,436.141,668.942,436.141z"/>
	<path fill-rule="evenodd" clip-rule="evenodd" fill="#777777" d="M1078.526,436.142c14.334-0.001,28.668,0.101,42.999-0.078
		c3.242-0.04,4.841,0.754,5.239,4.137c7.102,60.196-30.494,102.963-83.056,109.049c-53.756,6.225-103.002-27.443-116.521-77.261
		c-15.59-57.449,21.553-116.998,80.737-128.889c33.783-6.787,64.449,0.321,90.643,23.729c2.521,2.253,2.593,3.485,0.164,5.74
		c-4.759,4.421-9.393,9.001-13.774,13.793c-2.53,2.767-4.188,3.049-7.205,0.399c-13.45-11.808-29.523-17.662-47.195-17.445
		c-29.051,0.357-51.641,13.066-66.108,38.56c-25.074,44.182-0.538,100.459,49.002,111.423c25.059,5.546,48.324,0.776,67.678-17.545
		c9.262-8.769,13.503-19.923,16.021-32.048c0.829-3.993-1.353-3.878-4.089-3.871c-19,0.047-38.001-0.096-56.999,0.119
		c-4.084,0.046-5.54-0.919-5.313-5.192c0.364-6.813,0.271-13.667,0.023-20.492c-0.122-3.358,1.029-4.227,4.254-4.193
		C1049.526,436.226,1064.027,436.142,1078.526,436.142z"/>
	<path fill-rule="evenodd" clip-rule="evenodd" fill="#777777" d="M741.371,445.025c0-31.312,0.085-62.623-0.101-93.934
		c-0.025-4.223,1.189-5.233,5.277-5.191c20.15,0.208,40.324-0.487,60.452,0.218c40.066,1.404,71.313,17.751,88.52,55.593
		c16.718,36.765,9.342,85.245-16.959,113.21c-18.87,20.063-42.961,28.624-69.829,29.573c-21.125,0.746-42.294,0.18-63.439,0.456
		c-4.216,0.055-3.948-2.167-3.944-4.991C741.385,508.314,741.371,476.67,741.371,445.025z M771.629,444.847
		c0,7.497,0,14.993,0,22.489c0,14.16-0.019,28.32,0.022,42.48c0.006,2.006-0.763,4.646,2.819,4.552
		c15.961-0.419,32.007,1.306,47.869-1.552c26.822-4.833,44.29-22.017,49.731-48.672c2.114-10.358,2.188-20.736,1.096-31.264
		c-2.999-28.885-21.854-49.589-50.305-55.002c-15.374-2.926-30.883-1.37-46.327-1.951c-3.925-0.147-5.033,0.999-4.997,4.95
		C771.73,402.199,771.629,423.523,771.629,444.847z"/>
	<path fill-rule="evenodd" clip-rule="evenodd" fill="#777777" d="M1764.455,480.653c-0.001,18.155,0.289,36.317-0.106,54.465
		c-0.249,11.431-0.793,22.954-5.487,33.738c-8.286,19.039-22.865,30.307-43.039,34.188c-18.814,3.619-36.832,1.243-53.15-9.372
		c-8.678-5.645-15.314-13.253-19.309-22.978c-0.948-2.309-1.171-3.95,1.771-5.055c5.751-2.16,11.432-4.531,17.037-7.046
		c2.498-1.12,3.639-0.333,4.597,1.916c11.12,26.117,46.545,26.479,62.072,10.934c8.144-8.154,10.884-18.424,11.701-29.449
		c0.196-2.65,0.094-5.33,0.004-7.992c-0.042-1.244,0.626-2.936-0.856-3.596c-1.69-0.753-2.15,1.187-2.947,2.059
		c-7.818,8.547-17.514,13.623-28.835,15.64c-29.482,5.253-52.287-10.479-63.483-33.345c-14.363-29.334-8.332-69.884,20.954-90.423
		c21.952-15.396,52.613-12.682,71.145,6.648c0.851,0.888,1.413,2.643,3.018,2.076c1.622-0.573,0.964-2.282,1.012-3.516
		c0.432-11.019,0.416-11.02,11.386-11.021c12.518-0.001,12.518-0.001,12.518,12.658
		C1764.455,447.673,1764.455,464.163,1764.455,480.653z M1704.104,526.304c5.226,0.086,10.923-1.548,16.119-4.783
		c20.855-12.983,26.93-43.46,13.187-65.975c-12.735-20.865-39.513-24.801-57.554-8.46c-16.832,15.247-19.242,46.724-4.798,64.417
		C1679.312,521.614,1689.73,527.345,1704.104,526.304z"/>
	<path fill-rule="evenodd" clip-rule="evenodd" fill="#777777" d="M1479.797,499.986c0,13.491-0.093,26.984,0.065,40.474
		c0.039,3.345-0.711,4.838-4.393,4.619c-4.979-0.297-9.994-0.205-14.984-0.021c-3.009,0.111-4.025-0.989-4.212-3.992
		c-0.229-3.674,2.008-8.581-1.181-10.56c-1.451-0.901-4.739,4.644-7.353,7.119c-8.588,8.138-19.059,11.672-30.491,11.598
		c-17.278-0.112-32.534-5.517-42.609-20.6c-15.853-23.729-3.964-55.104,23.621-62.598c18.446-5.011,36.804-5.013,54.761,2.24
		c3.124,1.262,3.353,0.087,3.3-2.493c-0.352-17.196-17.449-31.358-35.298-29.207c-10.013,1.206-18.631,5.143-24.764,13.334
		c-2.395,3.198-4.299,3.084-7.268,0.992c-4.208-2.965-8.548-5.813-13.103-8.193c-4.269-2.23-3.817-4.175-1.104-7.499
		c8.977-10.995,20.714-17.146,34.355-19.603c13.283-2.393,26.524-1.616,39.342,3.015c18.376,6.64,30.634,23.287,31.168,42.904
		c0.35,12.814,0.066,25.646,0.066,38.471C1479.743,499.986,1479.77,499.986,1479.797,499.986z M1431.017,482.741
		c-12.802-0.344-21.593,1.573-29.224,7.347c-9.982,7.551-11.613,19.383-3.805,28.256c3.363,3.821,7.784,6.276,12.634,7.627
		c18.637,5.193,41.586-9.358,45.199-28.512c0.823-4.36-0.06-7.44-4.605-9.64C1443.675,484.172,1435.79,482.894,1431.017,482.741z"/>
	<path fill-rule="evenodd" clip-rule="evenodd" fill="#518EF3" d="M331.038,452c-6.079-12.737-13.685-24.621-20.688-36.837
		c-16.864-29.414-33.911-58.725-50.879-88.08c-0.646-1.118-1.227-2.273-1.983-3.682c15.501,0,30.566,0,45.633,0
		c23.845,41.198,47.639,82.426,71.56,123.58c8.014,13.788,15.487,27.897,24.285,41.225c-7.726,13.371-15.452,26.742-23.178,40.113
		c-0.539-0.81-1.11-1.601-1.614-2.432c-6.897-11.371-12.832-23.313-20.382-34.298C346.893,477.999,339.003,464.978,331.038,452z"/>
	<path fill-rule="evenodd" clip-rule="evenodd" fill="#777777" d="M1914.401,481.667c1.14,32.791-18.743,54.921-38.717,62.503
		c-45.795,17.382-92.188-11.345-91.16-63.695c0.517-26.36,11.14-47.514,35.282-59.283c36.402-17.746,81.805-1.086,92.576,41.705
		C1913.953,469.137,1914.084,475.375,1914.401,481.667z M1850.194,526.371c9.95,0.424,19.192-3.267,26.648-10.87
		c13.415-13.681,15.877-30.253,11.251-48.079c-7.946-30.624-44.207-40.504-66.571-18.249c-10.58,10.528-13.396,23.861-12.21,38.124
		C1811.139,509.272,1827.628,526.925,1850.194,526.371z"/>
	<path fill-rule="evenodd" clip-rule="evenodd" fill="#777777" d="M1958.826,434.997c6.38-7.989,13.102-13.128,21.104-16.648
		c18.102-7.961,42.396-3.805,55.131,9.745c9.094,9.676,11.979,21.853,12.18,34.511c0.406,25.645,0.036,51.301,0.211,76.951
		c0.029,4.431-1.388,5.899-5.754,5.532c-4.3-0.362-8.688-0.414-12.977,0.008c-5.022,0.493-6.564-1.116-6.505-6.299
		c0.276-23.982,0.086-47.97,0.146-71.955c0.014-5.419-0.86-10.557-3.202-15.481c-3.047-6.408-7.966-10.495-14.71-12.495
		c-20.95-6.212-39.866,5.617-43.799,27.25c-0.66,3.634-0.973,7.228-0.967,10.9c0.034,20.987-0.072,41.976,0.098,62.961
		c0.03,3.781-0.695,5.427-4.884,5.124c-5.303-0.384-10.658-0.227-15.982-0.048c-2.873,0.096-3.716-0.975-3.711-3.759
		c0.065-39.643,0.069-79.286-0.001-118.929c-0.005-2.811,0.916-3.892,3.715-3.833c5.328,0.111,10.661,0.095,15.989-0.015
		c3.037-0.063,4.121,1.236,3.963,4.218C1958.682,426.309,1958.826,429.898,1958.826,434.997z"/>
	<path fill-rule="evenodd" clip-rule="evenodd" fill="#777777" d="M1529.16,433.492c10.045-10.897,21.617-17.576,35.934-18.734
		c26.754-2.165,48.687,10.578,51.729,40.264c2.349,22.908,0.455,45.931,0.938,68.896c0.116,5.497-0.122,11.004,0.065,16.496
		c0.117,3.409-1.007,4.816-4.577,4.656c-5.322-0.239-10.674-0.269-15.992,0.008c-3.683,0.191-4.405-1.357-4.391-4.668
		c0.106-24.83,0.138-49.662,0.008-74.492c-0.045-8.396-2.078-16.395-8.86-21.969c-14.423-11.853-35.894-8.553-46.521,7.005
		c-4.889,7.158-7.485,15.168-7.491,23.911c-0.015,21.832-0.097,43.664,0.083,65.494c0.031,3.776-1.025,4.968-4.768,4.726
		c-4.813-0.313-9.677-0.318-14.489-0.003c-3.884,0.254-5.063-0.913-5.04-4.938c0.174-30.83,0.096-61.661,0.096-92.491
		c0-8.333,0.12-16.668-0.062-24.997c-0.065-2.994,0.782-4.232,3.891-4.136c5.161,0.159,10.333,0.123,15.496-0.015
		c3.046-0.081,4.154,1.154,3.995,4.163C1529.016,426.267,1529.16,429.883,1529.16,433.492z"/>
	<path fill-rule="evenodd" clip-rule="evenodd" fill="#777777" d="M1285.648,434.097c2.58-1.991,3.68-5.063,5.271-7.722
		c12.135-20.273,24.235-40.568,36.141-60.978c2.108-3.616,4.52-5.205,8.735-4.971c5.813,0.323,11.658,0.054,17.489,0.088
		c5.542,0.031,5.735,0.31,2.724,5.203c-13.084,21.256-26.223,42.479-39.35,63.708c-5.514,8.918-10.981,17.866-16.614,26.71
		c-1.685,2.646-2.384,5.313-2.374,8.438c0.082,25.158-0.043,50.316,0.138,75.474c0.028,3.925-0.922,5.343-4.962,5.04
		c-4.639-0.349-9.348-0.374-13.982,0.004c-4.357,0.354-5.665-0.965-5.623-5.472c0.231-24.656,0.042-49.315,0.185-73.974
		c0.023-4.015-0.923-7.384-3.062-10.76c-18.52-29.231-36.949-58.52-55.305-87.854c-1.04-1.663-3.724-3.263-2.287-5.488
		c1.294-2.006,4.023-0.963,6.116-1.004c5.496-0.106,11.001,0.118,16.491-0.091c3.384-0.129,5.4,1.02,7.203,4.024
		c13.1,21.832,26.396,43.546,39.673,65.271C1283.186,431.27,1283.797,433.101,1285.648,434.097z"/>
	<path fill-rule="evenodd" clip-rule="evenodd" fill="#DC5145" d="M398.965,488.206c-8.798-13.327-16.271-27.437-24.285-41.225
		c-23.921-41.154-47.715-82.382-71.56-123.58c13.647-0.095,27.298-0.103,40.943-0.361c2.682-0.051,3.359,1.648,4.321,3.311
		c17.236,29.788,34.456,59.588,51.678,89.386c4.325,7.483,8.592,15.001,12.978,22.448c5.222,8.867,5.019,17.609-0.212,26.391
		C408.155,472.421,403.582,480.326,398.965,488.206z"/>
	<path fill-rule="evenodd" clip-rule="evenodd" fill="#179E5C" d="M331.038,452c7.965,12.978,15.854,25.999,22.755,39.59
		c-1.618,2.706-3.279,5.387-4.853,8.119c-15.165,26.339-30.316,52.686-45.472,79.03c-15.141,0-30.281,0-45.979,0
		c4.956-8.589,9.808-17.008,14.67-25.42c19.053-32.965,38.108-65.929,57.176-98.886C329.83,453.58,330.468,452.81,331.038,452z"/>
	<path fill-rule="evenodd" clip-rule="evenodd" fill="#FDC00C" d="M303.469,578.74c15.155-26.346,30.307-52.692,45.472-79.031
		c1.573-2.732,3.234-5.413,4.853-8.119c7.548,10.984,13.482,22.927,20.38,34.298c0.504,0.831,1.075,1.622,1.614,2.432
		c-9.188,15.916-18.381,31.828-27.554,47.753c-0.912,1.584-1.592,3.022-3.975,2.986C330.664,578.852,317.066,578.826,303.469,578.74
		z"/>
	<path fill-rule="evenodd" clip-rule="evenodd" fill="#FEFEFE" d="M771.629,444.847c0-21.323,0.102-42.647-0.091-63.969
		c-0.036-3.951,1.072-5.098,4.997-4.95c15.444,0.581,30.953-0.975,46.327,1.951c28.45,5.413,47.306,26.117,50.305,55.002
		c1.093,10.527,1.019,20.905-1.096,31.264c-5.441,26.655-22.909,43.839-49.731,48.672c-15.862,2.857-31.908,1.133-47.869,1.552
		c-3.582,0.094-2.813-2.546-2.819-4.552c-0.041-14.16-0.022-28.32-0.022-42.48C771.629,459.84,771.629,452.344,771.629,444.847z"/>
	<path fill-rule="evenodd" clip-rule="evenodd" fill="#FEFEFE" d="M1704.104,526.304c-14.373,1.041-24.792-4.689-33.046-14.801
		c-14.444-17.693-12.034-49.17,4.798-64.417c18.041-16.341,44.818-12.405,57.554,8.46c13.743,22.515,7.669,52.991-13.187,65.975
		C1715.026,524.756,1709.329,526.39,1704.104,526.304z"/>
	<path fill-rule="evenodd" clip-rule="evenodd" fill="#FEFEFE" d="M1431.017,482.741c4.773,0.152,12.658,1.431,20.199,5.078
		c4.546,2.199,5.429,5.279,4.605,9.64c-3.613,19.153-26.563,33.705-45.199,28.512c-4.85-1.351-9.271-3.806-12.634-7.627
		c-7.809-8.873-6.178-20.705,3.805-28.256C1409.424,484.314,1418.215,482.397,1431.017,482.741z"/>
	<path fill-rule="evenodd" clip-rule="evenodd" fill="#FEFEFE" d="M1850.194,526.371c-22.566,0.554-39.056-17.099-40.882-39.074
		c-1.186-14.263,1.63-27.596,12.21-38.124c22.364-22.255,58.625-12.375,66.571,18.249c4.626,17.826,2.164,34.398-11.251,48.079
		C1869.387,523.104,1860.145,526.795,1850.194,526.371z"/>
</g>
</svg>
